<svg width="20" height="19" viewBox="0 0 20 19" fill="none" xmlns="http://www.w3.org/2000/svg">
<path d="M17.8917 5.15969C17.8217 4.88608 17.6878 4.63302 17.5008 4.42139C17.3138 4.20975 17.0792 4.04561 16.8162 3.9425C14.272 2.95985 10.2227 2.96875 10 2.96875C9.77734 2.96875 5.72797 2.95985 3.18375 3.9425C2.92084 4.04561 2.68621 4.20975 2.49923 4.42139C2.31224 4.63302 2.17825 4.88608 2.10832 5.15969C1.91609 5.90039 1.6875 7.25414 1.6875 9.5C1.6875 11.7459 1.91609 13.0996 2.10832 13.8403C2.17815 14.1141 2.31209 14.3673 2.49908 14.579C2.68607 14.7908 2.92075 14.9551 3.18375 15.0582C5.62109 15.9986 9.43594 16.0313 9.95102 16.0313H10.049C10.5641 16.0313 14.3811 15.9986 16.8162 15.0582C17.0792 14.9551 17.3139 14.7908 17.5009 14.579C17.6879 14.3673 17.8219 14.1141 17.8917 13.8403C18.0839 13.0981 18.3125 11.7459 18.3125 9.5C18.3125 7.25414 18.0839 5.90039 17.8917 5.15969ZM12.4188 9.98391L9.45004 12.062C9.36123 12.1242 9.25709 12.161 9.1489 12.1682C9.04071 12.1754 8.93261 12.1528 8.83633 12.103C8.74004 12.0531 8.65925 11.9778 8.60272 11.8853C8.54618 11.7928 8.51606 11.6866 8.51562 11.5781V7.42188C8.51566 7.31326 8.54548 7.20673 8.60185 7.11389C8.65822 7.02105 8.73898 6.94544 8.83534 6.89531C8.9317 6.84518 9.03996 6.82245 9.14834 6.82957C9.25673 6.8367 9.36108 6.87343 9.45004 6.93574L12.4188 9.01387C12.4969 9.06863 12.5606 9.1414 12.6046 9.22602C12.6487 9.31064 12.6716 9.40462 12.6716 9.5C12.6716 9.59538 12.6487 9.68936 12.6046 9.77398C12.5606 9.8586 12.4969 9.93137 12.4188 9.98614V9.98391Z" fill="#FF0000"/>
</svg>
