<svg width="19" height="19" viewBox="0 0 19 19" fill="none" xmlns="http://www.w3.org/2000/svg">
<circle cx="9.29922" cy="9.5" r="7.5" fill="#333333"/>
<path d="M11.4969 2.04415C10.0222 1.64903 8.46359 1.70005 7.01798 2.19077C5.57237 2.68149 4.30475 3.58986 3.37539 4.80101C2.44604 6.01216 1.89671 7.4717 1.79687 8.99506C1.69702 10.5184 2.05114 12.0372 2.81446 13.3593C3.57777 14.6814 4.71599 15.7474 6.08518 16.4226C7.45436 17.0978 8.99303 17.3519 10.5066 17.1526C12.0202 16.9533 13.4406 16.3097 14.5884 15.3031C15.7362 14.2966 16.5597 12.9723 16.9548 11.4976C17.4824 9.52034 17.204 7.4145 16.1808 5.6422C15.1576 3.8699 13.473 2.5759 11.4969 2.04415ZM10.9247 13.0891C10.8176 13.2044 10.669 13.2725 10.5117 13.2783C10.3543 13.2841 10.2012 13.2272 10.0858 13.1201C9.70358 12.7605 9.23822 12.5011 8.7313 12.3653C8.22438 12.2295 7.6917 12.2214 7.1809 12.3418C7.02878 12.3732 6.87038 12.3439 6.73968 12.2599C6.60898 12.1759 6.51639 12.0441 6.48177 11.8927C6.44715 11.7412 6.47325 11.5823 6.55448 11.4499C6.63571 11.3174 6.76559 11.2221 6.91627 11.1844C7.61589 11.0245 8.34399 11.038 9.03719 11.2237C9.7304 11.4095 10.3677 11.7618 10.8936 12.2501C11.009 12.3573 11.077 12.5058 11.0829 12.6631C11.0887 12.8205 11.0318 12.9737 10.9247 13.0891ZM12.6096 11.3891C12.5021 11.5041 12.3534 11.5718 12.196 11.5772C12.0387 11.5826 11.8856 11.5253 11.7705 11.4178C11.085 10.7775 10.2525 10.3155 9.34636 10.0727C8.44024 9.82994 7.48831 9.81373 6.57444 10.0255C6.42217 10.0581 6.26321 10.0295 6.13182 9.94591C6.00042 9.86235 5.90711 9.73053 5.87198 9.57883C5.83685 9.42714 5.86272 9.26771 5.944 9.13491C6.02529 9.0021 6.1555 8.90654 6.30657 8.86882C7.41005 8.61265 8.55962 8.63203 9.65384 8.92522C10.7481 9.21842 11.7533 9.77643 12.5809 10.55C12.6379 10.6033 12.6839 10.6674 12.7162 10.7385C12.7485 10.8096 12.7665 10.8864 12.769 10.9644C12.7716 11.0425 12.7587 11.1203 12.7312 11.1934C12.7036 11.2665 12.6619 11.3334 12.6085 11.3903L12.6096 11.3891ZM14.2945 9.68912C14.2412 9.7461 14.1772 9.79203 14.1062 9.82427C14.0351 9.85651 13.9584 9.87444 13.8805 9.87702C13.8025 9.87961 13.7248 9.8668 13.6517 9.83933C13.5787 9.81186 13.5118 9.77027 13.4549 9.71694C12.4685 8.7915 11.2688 8.12408 9.96231 7.77401C8.65584 7.42395 7.28313 7.40208 5.96617 7.71034C5.81273 7.74606 5.65139 7.71935 5.51764 7.63611C5.38389 7.55286 5.28868 7.41989 5.25297 7.26645C5.21726 7.11301 5.24396 6.95167 5.32721 6.81791C5.41046 6.68416 5.54343 6.58896 5.69687 6.55325C7.20396 6.20101 8.77471 6.22631 10.2697 6.62688C11.7646 7.02746 13.1376 7.79093 14.2667 8.84952C14.3238 8.90289 14.3698 8.96702 14.402 9.03821C14.4343 9.10941 14.4522 9.18627 14.4546 9.26439C14.4571 9.34251 14.4442 9.42035 14.4165 9.49345C14.3888 9.56655 14.347 9.63346 14.2934 9.69036L14.2945 9.68912Z" fill="black"/>
<path d="M11.4969 2.04415C10.0222 1.64903 8.46359 1.70005 7.01798 2.19077C5.57237 2.68149 4.30475 3.58986 3.37539 4.80101C2.44604 6.01216 1.89671 7.4717 1.79687 8.99506C1.69702 10.5184 2.05114 12.0372 2.81446 13.3593C3.57777 14.6814 4.71599 15.7474 6.08518 16.4226C7.45436 17.0978 8.99303 17.3519 10.5066 17.1526C12.0202 16.9533 13.4406 16.3097 14.5884 15.3031C15.7362 14.2966 16.5597 12.9723 16.9548 11.4976C17.4824 9.52034 17.204 7.4145 16.1808 5.6422C15.1576 3.8699 13.473 2.5759 11.4969 2.04415ZM10.9247 13.0891C10.8176 13.2044 10.669 13.2725 10.5117 13.2783C10.3543 13.2841 10.2012 13.2272 10.0858 13.1201C9.70358 12.7605 9.23822 12.5011 8.7313 12.3653C8.22438 12.2295 7.6917 12.2214 7.1809 12.3418C7.02878 12.3732 6.87038 12.3439 6.73968 12.2599C6.60898 12.1759 6.51639 12.0441 6.48177 11.8927C6.44715 11.7412 6.47325 11.5823 6.55448 11.4499C6.63571 11.3174 6.76559 11.2221 6.91627 11.1844C7.61589 11.0245 8.34399 11.038 9.03719 11.2237C9.7304 11.4095 10.3677 11.7618 10.8936 12.2501C11.009 12.3573 11.077 12.5058 11.0829 12.6631C11.0887 12.8205 11.0318 12.9737 10.9247 13.0891ZM12.6096 11.3891C12.5021 11.5041 12.3534 11.5718 12.196 11.5772C12.0387 11.5826 11.8856 11.5253 11.7705 11.4178C11.085 10.7775 10.2525 10.3155 9.34636 10.0727C8.44024 9.82994 7.48831 9.81373 6.57444 10.0255C6.42217 10.0581 6.26321 10.0295 6.13182 9.94591C6.00042 9.86235 5.90711 9.73053 5.87198 9.57883C5.83685 9.42714 5.86272 9.26771 5.944 9.13491C6.02529 9.0021 6.1555 8.90654 6.30657 8.86882C7.41005 8.61265 8.55962 8.63203 9.65384 8.92522C10.7481 9.21842 11.7533 9.77643 12.5809 10.55C12.6379 10.6033 12.6839 10.6674 12.7162 10.7385C12.7485 10.8096 12.7665 10.8864 12.769 10.9644C12.7716 11.0425 12.7587 11.1203 12.7312 11.1934C12.7036 11.2665 12.6619 11.3334 12.6085 11.3903L12.6096 11.3891ZM14.2945 9.68912C14.2412 9.7461 14.1772 9.79203 14.1062 9.82427C14.0351 9.85651 13.9584 9.87444 13.8805 9.87702C13.8025 9.87961 13.7248 9.8668 13.6517 9.83933C13.5787 9.81186 13.5118 9.77027 13.4549 9.71694C12.4685 8.7915 11.2688 8.12408 9.96231 7.77401C8.65584 7.42395 7.28313 7.40208 5.96617 7.71034C5.81273 7.74606 5.65139 7.71935 5.51764 7.63611C5.38389 7.55286 5.28868 7.41989 5.25297 7.26645C5.21726 7.11301 5.24396 6.95167 5.32721 6.81791C5.41046 6.68416 5.54343 6.58896 5.69687 6.55325C7.20396 6.20101 8.77471 6.22631 10.2697 6.62688C11.7646 7.02746 13.1376 7.79093 14.2667 8.84952C14.3238 8.90289 14.3698 8.96702 14.402 9.03821C14.4343 9.10941 14.4522 9.18627 14.4546 9.26439C14.4571 9.34251 14.4442 9.42035 14.4165 9.49345C14.3888 9.56655 14.347 9.63346 14.2934 9.69036L14.2945 9.68912Z" fill="#1CD760"/>
</svg>
