<svg width="14" height="13" viewBox="0 0 14 13" fill="none" xmlns="http://www.w3.org/2000/svg">
<path d="M7 0C5.71442 0 4.45772 0.381218 3.3888 1.09545C2.31988 1.80968 1.48676 2.82484 0.994786 4.01256C0.502816 5.20028 0.374095 6.50721 0.624899 7.76809C0.875703 9.02896 1.49477 10.1872 2.40381 11.0962C3.31285 12.0052 4.47104 12.6243 5.73192 12.8751C6.99279 13.1259 8.29973 12.9972 9.48744 12.5052C10.6752 12.0132 11.6903 11.1801 12.4046 10.1112C13.1188 9.04229 13.5 7.78558 13.5 6.5C13.4982 4.77665 12.8128 3.12441 11.5942 1.90582C10.3756 0.687224 8.72335 0.00181989 7 0ZM8.94188 9.10875C8.87986 9.22592 8.77385 9.31367 8.64716 9.3527C8.52046 9.39172 8.38345 9.37884 8.26625 9.31688C7.87699 9.10763 7.44194 8.99811 7 8.99811C6.55806 8.99811 6.12301 9.10763 5.73375 9.31688C5.61688 9.37563 5.48163 9.38625 5.35702 9.34644C5.23241 9.30664 5.12836 9.21958 5.06719 9.10395C5.00603 8.98832 4.99261 8.85332 5.02982 8.72792C5.06704 8.60251 5.15191 8.49668 5.26625 8.43312C5.80047 8.15056 6.39566 8.00285 7 8.00285C7.60435 8.00285 8.19953 8.15056 8.73375 8.43312C8.85092 8.49514 8.93867 8.60115 8.9777 8.72785C9.01673 8.85454 9.00384 8.99155 8.94188 9.10875ZM9.94188 7.35875C9.87954 7.47576 9.77328 7.56322 9.64646 7.6019C9.51964 7.64058 9.38266 7.62731 9.26563 7.565C8.56844 7.19354 7.7906 6.99925 7.00063 6.99925C6.21066 6.99925 5.43281 7.19354 4.73563 7.565C4.61885 7.62464 4.48332 7.63603 4.35824 7.59671C4.23315 7.55738 4.12851 7.47049 4.06688 7.35476C4.00524 7.23902 3.99153 7.10371 4.02871 6.97796C4.06588 6.85222 4.15097 6.74611 4.26563 6.6825C5.10738 6.23363 6.04667 5.99883 7.00063 5.99883C7.95458 5.99883 8.89388 6.23363 9.73563 6.6825C9.79368 6.71342 9.84505 6.75549 9.88682 6.8063C9.92858 6.8571 9.95991 6.91565 9.97901 6.97859C9.99811 7.04152 10.0046 7.10761 9.99813 7.17305C9.99165 7.2385 9.97232 7.30203 9.94125 7.36L9.94188 7.35875ZM10.9419 5.60875C10.911 5.66672 10.8689 5.71802 10.8182 5.75973C10.7674 5.80144 10.7089 5.83274 10.6461 5.85184C10.5832 5.87093 10.5172 5.87745 10.4518 5.87103C10.3864 5.8646 10.3229 5.84535 10.265 5.81437C9.26097 5.27659 8.13962 4.9952 7.00063 4.9952C5.86164 4.9952 4.74029 5.27659 3.73625 5.81437C3.61923 5.87687 3.48217 5.89031 3.35523 5.85175C3.22829 5.81319 3.12187 5.72578 3.05938 5.60875C2.99689 5.49172 2.98344 5.35466 3.02201 5.22773C3.06057 5.10079 3.14798 4.99437 3.265 4.93188C4.41412 4.31689 5.69729 3.99512 7.00063 3.99512C8.30396 3.99512 9.58714 4.31689 10.7363 4.93188C10.7943 4.96285 10.8457 5.00498 10.8875 5.05586C10.9292 5.10674 10.9605 5.16536 10.9796 5.22837C10.9986 5.29137 11.005 5.35751 10.9985 5.423C10.9919 5.48849 10.9724 5.55204 10.9413 5.61L10.9419 5.60875Z" fill="#02270E"/>
</svg>
