<svg width="12" height="14" viewBox="0 0 12 14" fill="none" xmlns="http://www.w3.org/2000/svg">
<path d="M11 1.5H9.5V1C9.5 0.867392 9.44732 0.740215 9.35355 0.646447C9.25979 0.552678 9.13261 0.5 9 0.5C8.86739 0.5 8.74021 0.552678 8.64645 0.646447C8.55268 0.740215 8.5 0.867392 8.5 1V1.5H3.5V1C3.5 0.867392 3.44732 0.740215 3.35355 0.646447C3.25979 0.552678 3.13261 0.5 3 0.5C2.86739 0.5 2.74021 0.552678 2.64645 0.646447C2.55268 0.740215 2.5 0.867392 2.5 1V1.5H1C0.734784 1.5 0.48043 1.60536 0.292893 1.79289C0.105357 1.98043 0 2.23478 0 2.5V12.5C0 12.7652 0.105357 13.0196 0.292893 13.2071C0.48043 13.3946 0.734784 13.5 1 13.5H11C11.2652 13.5 11.5196 13.3946 11.7071 13.2071C11.8946 13.0196 12 12.7652 12 12.5V2.5C12 2.23478 11.8946 1.98043 11.7071 1.79289C11.5196 1.60536 11.2652 1.5 11 1.5ZM11 4.5H1V2.5H2.5V3C2.5 3.13261 2.55268 3.25979 2.64645 3.35355C2.74021 3.44732 2.86739 3.5 3 3.5C3.13261 3.5 3.25979 3.44732 3.35355 3.35355C3.44732 3.25979 3.5 3.13261 3.5 3V2.5H8.5V3C8.5 3.13261 8.55268 3.25979 8.64645 3.35355C8.74021 3.44732 8.86739 3.5 9 3.5C9.13261 3.5 9.25979 3.44732 9.35355 3.35355C9.44732 3.25979 9.5 3.13261 9.5 3V2.5H11V4.5Z" fill="white" fill-opacity="0.7"/>
</svg>
