<svg width="12" height="15" viewBox="0 0 12 15" fill="none" xmlns="http://www.w3.org/2000/svg">
<path d="M6 0.5C4.54182 0.501654 3.14383 1.08165 2.11274 2.11274C1.08165 3.14383 0.501654 4.54182 0.5 6C0.5 10.7063 5.5 14.2606 5.71313 14.4094C5.7972 14.4683 5.89735 14.4999 6 14.4999C6.10265 14.4999 6.2028 14.4683 6.28687 14.4094C6.5 14.2606 11.5 10.7063 11.5 6C11.4983 4.54182 10.9184 3.14383 9.88726 2.11274C8.85617 1.08165 7.45818 0.501654 6 0.5ZM6 4C6.39556 4 6.78224 4.1173 7.11114 4.33706C7.44004 4.55682 7.69638 4.86918 7.84776 5.23463C7.99913 5.60009 8.03874 6.00222 7.96157 6.39018C7.8844 6.77814 7.69392 7.13451 7.41421 7.41421C7.13451 7.69392 6.77814 7.8844 6.39018 7.96157C6.00222 8.03874 5.60009 7.99913 5.23463 7.84776C4.86918 7.69638 4.55682 7.44004 4.33706 7.11114C4.1173 6.78224 4 6.39556 4 6C4 5.46957 4.21071 4.96086 4.58579 4.58579C4.96086 4.21071 5.46957 4 6 4Z" fill="#02270E"/>
</svg>
