<svg width="13" height="13" viewBox="0 0 13 13" fill="none" xmlns="http://www.w3.org/2000/svg">
<path d="M8.01688 1.37074C8.03385 1.30729 8.06316 1.2478 8.10313 1.19567C8.14311 1.14355 8.19296 1.09981 8.24984 1.06696C8.30672 1.03411 8.36951 1.01279 8.43464 1.00421C8.49976 0.995641 8.56594 0.999983 8.62938 1.01699C9.5563 1.25884 10.402 1.7434 11.0794 2.42077C11.7567 3.09813 12.2413 3.94383 12.4831 4.87074C12.5001 4.93419 12.5045 5.00036 12.4959 5.06549C12.4873 5.13061 12.466 5.19341 12.4332 5.25029C12.4003 5.30717 12.3566 5.35702 12.3044 5.39699C12.2523 5.43696 12.1928 5.46627 12.1294 5.48324C12.0871 5.49434 12.0437 5.50001 12 5.50012C11.8899 5.50015 11.7829 5.46384 11.6955 5.39683C11.6082 5.32982 11.5454 5.23584 11.5169 5.12949C11.3197 4.3727 10.9243 3.68219 10.3714 3.12915C9.81844 2.5761 9.12801 2.18054 8.37126 1.98324C8.30774 1.96634 8.24819 1.93708 8.196 1.89713C8.1438 1.85719 8.1 1.80735 8.06708 1.75046C8.03417 1.69358 8.01279 1.63076 8.00418 1.5656C7.99557 1.50044 7.99988 1.43423 8.01688 1.37074ZM7.87126 3.98324C8.73313 4.21324 9.28688 4.76762 9.51688 5.62949C9.54537 5.73584 9.60816 5.82982 9.69552 5.89683C9.78287 5.96384 9.88991 6.00015 10 6.00012C10.0437 6.00001 10.0871 5.99434 10.1294 5.98324C10.1928 5.96627 10.2523 5.93696 10.3044 5.89699C10.3566 5.85702 10.4003 5.80717 10.4332 5.75029C10.466 5.69341 10.4873 5.63061 10.4959 5.56549C10.5045 5.50036 10.5001 5.43419 10.4831 5.37074C10.1631 4.17324 9.32688 3.33699 8.12938 3.01699C8.00125 2.98276 7.86477 3.00084 7.74996 3.06724C7.63515 3.13364 7.55142 3.24292 7.51719 3.37106C7.48296 3.49919 7.50104 3.63567 7.56744 3.75048C7.63384 3.86529 7.74312 3.94901 7.87126 3.98324ZM12.3981 8.90387L9.45376 7.58449L9.44563 7.58074C9.29278 7.51537 9.12603 7.48913 8.96049 7.50441C8.79494 7.51968 8.63581 7.57599 8.49751 7.66824C8.48122 7.679 8.46557 7.69068 8.45063 7.70324L6.92938 9.00012C5.96563 8.53199 4.97063 7.54449 4.50251 6.59324L5.80126 5.04887C5.81376 5.03324 5.82563 5.01762 5.83688 5.00074C5.92715 4.86281 5.98192 4.70469 5.99631 4.54048C6.0107 4.37626 5.98428 4.21103 5.91938 4.05949V4.05199L4.59626 1.10262C4.51047 0.904658 4.36296 0.739752 4.17575 0.632517C3.98854 0.525281 3.77166 0.481468 3.55751 0.507618C2.71061 0.619059 1.93324 1.03497 1.37059 1.67768C0.807935 2.32038 0.498474 3.14592 0.500006 4.00012C0.500006 8.96262 4.53751 13.0001 9.50001 13.0001C10.3542 13.0016 11.1797 12.6922 11.8224 12.1295C12.4651 11.5669 12.8811 10.7895 12.9925 9.94262C13.0187 9.72853 12.975 9.51171 12.8679 9.32451C12.7607 9.13731 12.596 8.98976 12.3981 8.90387Z" fill="#02270E"/>
</svg>
