<svg width="14" height="13" viewBox="0 0 14 13" fill="none" xmlns="http://www.w3.org/2000/svg">
<path d="M12.5 3.5001H4.40688L11.1438 1.47947C11.2708 1.44135 11.3775 1.35431 11.4404 1.23751C11.5033 1.12071 11.5172 0.983715 11.4791 0.85666C11.4409 0.729605 11.3539 0.622898 11.2371 0.560015C11.1203 0.497132 10.9833 0.483223 10.8562 0.521347L0.85625 3.52135C0.753296 3.55225 0.663042 3.61551 0.598872 3.70175C0.534701 3.78798 0.50003 3.89261 0.5 4.0001V11.5001C0.5 11.7653 0.605357 12.0197 0.792893 12.2072C0.98043 12.3947 1.23478 12.5001 1.5 12.5001H12.5C12.7652 12.5001 13.0196 12.3947 13.2071 12.2072C13.3946 12.0197 13.5 11.7653 13.5 11.5001V4.5001C13.5 4.23488 13.3946 3.98053 13.2071 3.79299C13.0196 3.60545 12.7652 3.5001 12.5 3.5001ZM5.5 10.5001H3C2.86739 10.5001 2.74021 10.4474 2.64645 10.3537C2.55268 10.2599 2.5 10.1327 2.5 10.0001C2.5 9.86749 2.55268 9.74031 2.64645 9.64654C2.74021 9.55278 2.86739 9.5001 3 9.5001H5.5C5.63261 9.5001 5.75979 9.55278 5.85355 9.64654C5.94732 9.74031 6 9.86749 6 10.0001C6 10.1327 5.94732 10.2599 5.85355 10.3537C5.75979 10.4474 5.63261 10.5001 5.5 10.5001ZM5.5 8.5001H3C2.86739 8.5001 2.74021 8.44742 2.64645 8.35365C2.55268 8.25988 2.5 8.13271 2.5 8.0001C2.5 7.86749 2.55268 7.74031 2.64645 7.64654C2.74021 7.55278 2.86739 7.5001 3 7.5001H5.5C5.63261 7.5001 5.75979 7.55278 5.85355 7.64654C5.94732 7.74031 6 7.86749 6 8.0001C6 8.13271 5.94732 8.25988 5.85355 8.35365C5.75979 8.44742 5.63261 8.5001 5.5 8.5001ZM5.5 6.5001H3C2.86739 6.5001 2.74021 6.44742 2.64645 6.35365C2.55268 6.25988 2.5 6.13271 2.5 6.0001C2.5 5.86749 2.55268 5.74031 2.64645 5.64654C2.74021 5.55278 2.86739 5.5001 3 5.5001H5.5C5.63261 5.5001 5.75979 5.55278 5.85355 5.64654C5.94732 5.74031 6 5.86749 6 6.0001C6 6.13271 5.94732 6.25988 5.85355 6.35365C5.75979 6.44742 5.63261 6.5001 5.5 6.5001ZM9.5 10.0001C9.10444 10.0001 8.71776 9.8828 8.38886 9.66304C8.05996 9.44327 7.80362 9.13092 7.65224 8.76546C7.50087 8.40001 7.46126 7.99788 7.53843 7.60992C7.6156 7.22195 7.80608 6.86559 8.08579 6.58588C8.36549 6.30618 8.72186 6.1157 9.10982 6.03853C9.49778 5.96136 9.89991 6.00096 10.2654 6.15234C10.6308 6.30371 10.9432 6.56006 11.1629 6.88896C11.3827 7.21786 11.5 7.60453 11.5 8.0001C11.5 8.53053 11.2893 9.03924 10.9142 9.41431C10.5391 9.78938 10.0304 10.0001 9.5 10.0001Z" fill="#02270E"/>
</svg>
